<svg xmlns="http://www.w3.org/2000/svg" xmlns:xlink="http://www.w3.org/1999/xlink" width="432.255" height="320.128" viewBox="0 0 432.255 320.128">
  <defs>
    <clipPath id="clip-path">
      <rect id="Rectangle_1676" data-name="Rectangle 1676" width="74.501" height="59.796" fill="none"/>
    </clipPath>
    <clipPath id="clip-path-2">
      <rect id="Rectangle_1671" data-name="Rectangle 1671" width="432.255" height="320.128" fill="#f2f6ff"/>
    </clipPath>
    <clipPath id="clip-path-3">
      <rect id="Rectangle_1674" data-name="Rectangle 1674" width="266.429" height="258.38" fill="none"/>
    </clipPath>
    <clipPath id="clip-path-5">
      <rect id="Rectangle_1672" data-name="Rectangle 1672" width="265.656" height="117.003" fill="none"/>
    </clipPath>
    <clipPath id="clip-path-6">
      <rect id="Rectangle_1675" data-name="Rectangle 1675" width="164.649" height="135.774" fill="none"/>
    </clipPath>
  </defs>
  <g id="email" transform="translate(-364.713 -219.646)">
    <g id="Group_20" data-name="Group 20" transform="translate(427.675 230.658)">
      <g id="Group_19" data-name="Group 19" transform="translate(0 0)" clip-path="url(#clip-path)">
        <path id="Path_30" data-name="Path 30" d="M35.853,22.327a7.808,7.808,0,1,1-7.809,7.808,7.818,7.818,0,0,1,7.809-7.808m0,2.449a5.358,5.358,0,1,0,5.36,5.358,5.365,5.365,0,0,0-5.36-5.358" transform="translate(12.338 9.823)" fill="#4b56ef"/>
        <path id="Path_31" data-name="Path 31" d="M16.1,4.415a7.808,7.808,0,1,1-7.809,7.808A7.817,7.817,0,0,1,16.1,4.415m0,2.449a5.359,5.359,0,1,0,5.358,5.358A5.364,5.364,0,0,0,16.1,6.864" transform="translate(3.65 1.942)" fill="#e4ecf9"/>
        <path id="Path_32" data-name="Path 32" d="M6.564,35.784A1.225,1.225,0,0,0,7.789,37.01h5.4a1.225,1.225,0,0,0,0-2.451h-5.4a1.225,1.225,0,0,0-1.225,1.225" transform="translate(2.888 15.205)" fill="#4425e6"/>
        <path id="Path_33" data-name="Path 33" d="M0,35.784A1.225,1.225,0,0,0,1.225,37.01h5.4a1.225,1.225,0,0,0,0-2.451h-5.4A1.225,1.225,0,0,0,0,35.784" transform="translate(0 15.205)" fill="#4425e6"/>
        <path id="Path_34" data-name="Path 34" d="M5.158,30.519v4.853a1.225,1.225,0,0,0,2.449,0V30.519a1.225,1.225,0,1,0-2.449,0" transform="translate(2.269 12.888)" fill="#4425e6"/>
        <path id="Path_35" data-name="Path 35" d="M5.158,37.68v4.853a1.225,1.225,0,0,0,2.449,0V37.68a1.225,1.225,0,0,0-2.449,0" transform="translate(2.269 16.039)" fill="#4425e6"/>
        <path id="Path_36" data-name="Path 36" d="M46.286,6.49a1.225,1.225,0,0,0,1.225,1.225h5.4a1.225,1.225,0,0,0,0-2.451h-5.4A1.225,1.225,0,0,0,46.286,6.49" transform="translate(20.364 2.316)" fill="#e4ecf9"/>
        <path id="Path_37" data-name="Path 37" d="M39.721,6.49a1.225,1.225,0,0,0,1.224,1.225h5.4a1.225,1.225,0,0,0,0-2.451h-5.4A1.225,1.225,0,0,0,39.721,6.49" transform="translate(17.476 2.316)" fill="#e4ecf9"/>
        <path id="Path_38" data-name="Path 38" d="M44.879,1.225V6.078a1.225,1.225,0,0,0,2.449,0V1.225a1.225,1.225,0,1,0-2.449,0" transform="translate(19.745 0)" fill="#e4ecf9"/>
        <path id="Path_39" data-name="Path 39" d="M44.879,8.385v4.853a1.225,1.225,0,0,0,2.449,0V8.385a1.225,1.225,0,1,0-2.449,0" transform="translate(19.745 3.15)" fill="#e4ecf9"/>
      </g>
    </g>
    <g id="Group_8" data-name="Group 8" transform="translate(364.713 219.646)">
      <g id="Group_7" data-name="Group 7" transform="translate(0 0)" clip-path="url(#clip-path-2)">
        <path id="Path_2" data-name="Path 2" d="M272.174,0A159.833,159.833,0,0,0,143.331,65.1a28.6,28.6,0,0,1-23.1,11.5h-.152a120.076,120.076,0,1,0,52.2,228.241,36.258,36.258,0,0,1,31.312-.117A160.135,160.135,0,0,0,432.255,160.07C432.255,71.733,360.511,0,272.174,0" transform="translate(0 -0.005)" fill="#f2f6ff"/>
      </g>
    </g>
    <g id="Group_18" data-name="Group 18" transform="translate(453.276 275.77)">
      <g id="Group_15" data-name="Group 15">
        <g id="Group_14" data-name="Group 14" clip-path="url(#clip-path-3)">
          <g id="Group_13" data-name="Group 13">
            <g id="Group_12" data-name="Group 12" clip-path="url(#clip-path-3)">
              <path id="Path_3" data-name="Path 3" d="M259.727,461.9H9.453a7.741,7.741,0,0,1-7.74-7.74V312.249a7.74,7.74,0,0,1,7.74-7.74H259.727a7.74,7.74,0,0,1,7.74,7.74V454.157a7.74,7.74,0,0,1-7.74,7.74" transform="translate(-1.156 -205.52)" fill="#ecf2fe"/>
              <path id="Path_4" data-name="Path 4" d="M3.856,93.962,118.694,6.119a20.891,20.891,0,0,1,29.544,0L262.687,96.434a9.78,9.78,0,0,1-6.153,17.457L9.7,111.51A9.78,9.78,0,0,1,3.856,93.962" transform="translate(0 0)" fill="#704bef"/>
              <path id="Path_5" data-name="Path 5" d="M270.854,265.245H71.779A15.325,15.325,0,0,1,56.454,249.92V90.653A15.325,15.325,0,0,1,71.779,75.328H270.854a15.325,15.325,0,0,1,15.325,15.325V249.92a15.325,15.325,0,0,1-15.325,15.325" transform="translate(-38.102 -50.841)" fill="#fff"/>
              <path id="Path_6" data-name="Path 6" d="M193.029,155.047H118.205a4.876,4.876,0,0,1,0-9.752h74.824a4.876,4.876,0,0,1,0,9.752" transform="translate(-76.488 -98.063)" fill="#674aff"/>
              <path id="Path_7" data-name="Path 7" d="M243.915,206.945H119.891a4.063,4.063,0,1,1,0-8.127H243.915a4.063,4.063,0,1,1,0,8.127" transform="translate(-78.175 -134.187)" fill="#e4ecf9"/>
              <path id="Path_8" data-name="Path 8" d="M243.915,257.969H119.891a4.064,4.064,0,0,1,0-8.127H243.915a4.064,4.064,0,0,1,0,8.127" transform="translate(-78.175 -168.624)" fill="#e4ecf9"/>
              <path id="Path_9" data-name="Path 9" d="M243.915,308.993H119.891a4.063,4.063,0,0,1,0-8.127H243.915a4.063,4.063,0,0,1,0,8.127" transform="translate(-78.175 -203.061)" fill="#e4ecf9"/>
              <path id="Path_10" data-name="Path 10" d="M243.915,360.017H119.891a4.063,4.063,0,1,1,0-8.127H243.915a4.063,4.063,0,1,1,0,8.127" transform="translate(-78.175 -237.499)" fill="#e4ecf9"/>
              <path id="Path_11" data-name="Path 11" d="M267.467,454.157a7.741,7.741,0,0,1-7.74,7.74H9.453a7.741,7.741,0,0,1-7.74-7.74V312.249a7.74,7.74,0,0,1,7.74-7.74Z" transform="translate(-1.156 -205.52)" fill="#7225e6"/>
              <path id="Path_12" data-name="Path 12" d="M1.713,454.157a7.741,7.741,0,0,0,7.74,7.74H259.727a7.741,7.741,0,0,0,7.74-7.74V312.249a7.74,7.74,0,0,0-7.74-7.74Z" transform="translate(-1.156 -205.52)" fill="#7225e6"/>
              <g id="Group_11" data-name="Group 11" transform="translate(0.113 137.644)" opacity="0.5">
                <g id="Group_10" data-name="Group 10">
                  <g id="Group_9" data-name="Group 9" clip-path="url(#clip-path-5)">
                    <path id="Path_13" data-name="Path 13" d="M4.368,521.638l113.568-91.815c8.448-8.448,24.2-8.552,32.533-.216l111.737,92.815c7.491,5.893,3.143,18.03-6.448,18L10.264,539.65c-9.571-.029-13.537-12.146-5.9-18.012" transform="translate(-0.349 -423.42)" fill="#341e74"/>
                  </g>
                </g>
              </g>
              <path id="Path_14" data-name="Path 14" d="M3.856,538.434l114.838-87.843a20.891,20.891,0,0,1,29.544,0l114.449,90.315a9.78,9.78,0,0,1-6.153,17.457L9.7,555.982a9.78,9.78,0,0,1-5.848-17.548" transform="translate(0 -299.985)" fill="#704bef"/>
            </g>
          </g>
        </g>
      </g>
      <g id="Group_17" data-name="Group 17" transform="translate(101.779 6.587)">
        <g id="Group_16" data-name="Group 16" transform="translate(0 0)" clip-path="url(#clip-path-6)">
          <path id="Path_15" data-name="Path 15" d="M52.36,17.295a1.42,1.42,0,0,0,.659,0c2.377-.585,3.754-.823,3.769-.825a1.252,1.252,0,0,0,1.067-1.443,1.322,1.322,0,0,0-1.539-1c-.059.009-1.479.253-3.967.864a1.242,1.242,0,0,0-.947,1.519,1.291,1.291,0,0,0,.958.89" transform="translate(43.442 11.844)" fill="#dcedf9"/>
          <path id="Path_16" data-name="Path 16" d="M13,47.5c-1.233,2.112-2.422,4.3-3.531,6.509a1.358,1.358,0,0,1-1.523.676A1.488,1.488,0,0,1,7.7,54.6a1.213,1.213,0,0,1-.631-1.656c1.132-2.252,2.344-4.487,3.6-6.643a1.369,1.369,0,0,1,1.8-.493A1.207,1.207,0,0,1,13,47.5" transform="translate(5.873 38.618)" fill="#dcedf9"/>
          <path id="Path_17" data-name="Path 17" d="M9.043,54.589c-.954,2.232-1.864,4.537-2.7,6.857a1.343,1.343,0,0,1-1.578.807,1.032,1.032,0,0,1-.1-.028,1.23,1.23,0,0,1-.831-1.576c.853-2.363,1.778-4.714,2.75-6.987a1.355,1.355,0,0,1,1.724-.69,1.218,1.218,0,0,1,.735,1.617" transform="translate(3.184 44.731)" fill="#dcedf9"/>
          <path id="Path_18" data-name="Path 18" d="M1,78A1.247,1.247,0,0,1,.011,76.64c.338-2.475.736-4.951,1.185-7.358a1.32,1.32,0,0,1,1.534-1.01,1.249,1.249,0,0,1,1.076,1.438c-.443,2.37-.834,4.808-1.168,7.245A1.309,1.309,0,0,1,1.156,78.03,1.147,1.147,0,0,1,1,78" transform="translate(0 57.733)" fill="#dcedf9"/>
          <path id="Path_19" data-name="Path 19" d="M5.07,60.5A1.235,1.235,0,0,1,5.99,62.03c-.325,1.091-.637,2.2-.93,3.284-.34,1.255-.666,2.538-.971,3.815a1.329,1.329,0,0,1-1.584.94l-.035-.007A1.241,1.241,0,0,1,1.5,68.583c.31-1.3.642-2.6.988-3.878.3-1.108.617-2.232.947-3.343a1.335,1.335,0,0,1,1.6-.871l.031.007" transform="translate(1.244 51.134)" fill="#dcedf9"/>
          <path id="Path_20" data-name="Path 20" d="M13.483,46.919a1.364,1.364,0,0,1-1.445.541,1.381,1.381,0,0,1-.382-.153,1.2,1.2,0,0,1-.412-1.717c1.412-2.1,2.911-4.175,4.456-6.176a1.382,1.382,0,0,1,1.85-.277,1.2,1.2,0,0,1,.3,1.737c-1.514,1.958-2.979,3.993-4.362,6.045" transform="translate(9.337 32.905)" fill="#dcedf9"/>
          <path id="Path_21" data-name="Path 21" d="M52.41,18.04c-2.416.775-4.869,1.645-7.287,2.582a1.4,1.4,0,0,1-.831.055,1.3,1.3,0,0,1-.9-.731,1.215,1.215,0,0,1,.718-1.623c2.47-.958,4.975-1.846,7.443-2.638a1.348,1.348,0,0,1,1.682.775,1.226,1.226,0,0,1-.825,1.578" transform="translate(36.619 13.212)" fill="#dcedf9"/>
          <path id="Path_22" data-name="Path 22" d="M37.589,24.408a1.409,1.409,0,0,1-.971.12,1.313,1.313,0,0,1-.831-.6,1.2,1.2,0,0,1,.509-1.691c2.305-1.207,4.677-2.366,7.051-3.444a1.365,1.365,0,0,1,1.768.578,1.21,1.21,0,0,1-.617,1.661c-2.328,1.056-4.652,2.193-6.911,3.376" transform="translate(30.129 15.791)" fill="#dcedf9"/>
          <path id="Path_23" data-name="Path 23" d="M24.1,34.3a1.38,1.38,0,0,1-1.231.3,1.331,1.331,0,0,1-.641-.354,1.19,1.19,0,0,1,.061-1.757c1.922-1.691,3.93-3.347,5.968-4.927a1.386,1.386,0,0,1,1.866.166,1.193,1.193,0,0,1-.179,1.75c-2,1.549-3.961,3.171-5.844,4.825" transform="translate(18.5 23.07)" fill="#dcedf9"/>
          <path id="Path_24" data-name="Path 24" d="M30.542,28.979a1.392,1.392,0,0,1-1.106.2,1.321,1.321,0,0,1-.746-.474,1.194,1.194,0,0,1,.293-1.735c2.125-1.453,4.334-2.867,6.566-4.2a1.377,1.377,0,0,1,1.829.38,1.2,1.2,0,0,1-.4,1.717c-2.187,1.311-4.351,2.7-6.433,4.118" transform="translate(24.055 19.09)" fill="#dcedf9"/>
          <path id="Path_25" data-name="Path 25" d="M18.38,40.312a1.375,1.375,0,0,1-1.346.413,1.359,1.359,0,0,1-.519-.247,1.193,1.193,0,0,1-.175-1.752c1.68-1.907,3.45-3.79,5.257-5.595a1.385,1.385,0,0,1,1.872-.054,1.189,1.189,0,0,1,.057,1.757c-1.768,1.766-3.5,3.609-5.146,5.477" transform="translate(13.564 27.693)" fill="#dcedf9"/>
          <path id="Path_26" data-name="Path 26" d="M53.842,20.722,51.164,0l70.207,10.069Z" transform="translate(43.277 0)" fill="#7225e6"/>
          <path id="Path_27" data-name="Path 27" d="M120.491,5.454,55.635,21.385l-.172.044-3.258,3.734.755-9.054Z" transform="translate(44.158 4.613)" fill="#3b21ac"/>
          <path id="Path_28" data-name="Path 28" d="M52.205,17.844l5.829-.074-2.571-3.662Z" transform="translate(44.158 11.933)" fill="#3b21ac"/>
          <path id="Path_29" data-name="Path 29" d="M62.131,19.423l-8.162,2,13.277,18.9L119,5.455Z" transform="translate(45.65 4.614)" fill="#7225e6"/>
        </g>
      </g>
    </g>
  </g>
</svg>
